<mxfile host="app.diagrams.net" modified="2021-10-14T17:51:17.067Z" agent="5.0 (X11; Linux x86_64) AppleWebKit/537.36 (KHTML, like Gecko) Chrome/94.0.4606.71 Safari/537.36" etag="ATHNpMgNO1Tn-lAem6uX" version="15.5.2" type="github">
  <diagram id="AhNjpVgBGugtIAJDckUr" name="Page-1">
    <mxGraphModel dx="1024" dy="549" grid="1" gridSize="10" guides="1" tooltips="1" connect="1" arrows="1" fold="1" page="1" pageScale="1" pageWidth="850" pageHeight="1100" math="0" shadow="0">
      <root>
        <mxCell id="0" />
        <mxCell id="1" parent="0" />
        <mxCell id="zDdMs9WuckhUYZAws6Hm-107" value="" style="shape=table;startSize=0;container=1;collapsible=0;childLayout=tableLayout;" vertex="1" parent="1">
          <mxGeometry x="40" y="160" width="240" height="240" as="geometry" />
        </mxCell>
        <mxCell id="zDdMs9WuckhUYZAws6Hm-108" value="" style="shape=partialRectangle;collapsible=0;dropTarget=0;pointerEvents=0;fillColor=none;top=0;left=0;bottom=0;right=0;points=[[0,0.5],[1,0.5]];portConstraint=eastwest;" vertex="1" parent="zDdMs9WuckhUYZAws6Hm-107">
          <mxGeometry width="240" height="48" as="geometry" />
        </mxCell>
        <mxCell id="zDdMs9WuckhUYZAws6Hm-109" value="" style="shape=partialRectangle;html=1;whiteSpace=wrap;connectable=0;overflow=hidden;fillColor=none;top=0;left=0;bottom=0;right=0;pointerEvents=1;" vertex="1" parent="zDdMs9WuckhUYZAws6Hm-108">
          <mxGeometry width="48" height="48" as="geometry">
            <mxRectangle width="48" height="48" as="alternateBounds" />
          </mxGeometry>
        </mxCell>
        <mxCell id="zDdMs9WuckhUYZAws6Hm-110" value="" style="shape=partialRectangle;html=1;whiteSpace=wrap;connectable=0;overflow=hidden;fillColor=none;top=0;left=0;bottom=0;right=0;pointerEvents=1;" vertex="1" parent="zDdMs9WuckhUYZAws6Hm-108">
          <mxGeometry x="48" width="48" height="48" as="geometry">
            <mxRectangle width="48" height="48" as="alternateBounds" />
          </mxGeometry>
        </mxCell>
        <mxCell id="zDdMs9WuckhUYZAws6Hm-111" value="" style="shape=partialRectangle;html=1;whiteSpace=wrap;connectable=0;overflow=hidden;fillColor=none;top=0;left=0;bottom=0;right=0;pointerEvents=1;" vertex="1" parent="zDdMs9WuckhUYZAws6Hm-108">
          <mxGeometry x="96" width="48" height="48" as="geometry">
            <mxRectangle width="48" height="48" as="alternateBounds" />
          </mxGeometry>
        </mxCell>
        <mxCell id="zDdMs9WuckhUYZAws6Hm-112" value="" style="shape=partialRectangle;html=1;whiteSpace=wrap;connectable=0;overflow=hidden;fillColor=none;top=0;left=0;bottom=0;right=0;pointerEvents=1;" vertex="1" parent="zDdMs9WuckhUYZAws6Hm-108">
          <mxGeometry x="144" width="48" height="48" as="geometry">
            <mxRectangle width="48" height="48" as="alternateBounds" />
          </mxGeometry>
        </mxCell>
        <mxCell id="zDdMs9WuckhUYZAws6Hm-113" value="" style="shape=partialRectangle;html=1;whiteSpace=wrap;connectable=0;overflow=hidden;fillColor=none;top=0;left=0;bottom=0;right=0;pointerEvents=1;" vertex="1" parent="zDdMs9WuckhUYZAws6Hm-108">
          <mxGeometry x="192" width="48" height="48" as="geometry">
            <mxRectangle width="48" height="48" as="alternateBounds" />
          </mxGeometry>
        </mxCell>
        <mxCell id="zDdMs9WuckhUYZAws6Hm-114" value="" style="shape=partialRectangle;collapsible=0;dropTarget=0;pointerEvents=0;fillColor=none;top=0;left=0;bottom=0;right=0;points=[[0,0.5],[1,0.5]];portConstraint=eastwest;" vertex="1" parent="zDdMs9WuckhUYZAws6Hm-107">
          <mxGeometry y="48" width="240" height="48" as="geometry" />
        </mxCell>
        <mxCell id="zDdMs9WuckhUYZAws6Hm-115" value="" style="shape=partialRectangle;html=1;whiteSpace=wrap;connectable=0;overflow=hidden;fillColor=none;top=0;left=0;bottom=0;right=0;pointerEvents=1;" vertex="1" parent="zDdMs9WuckhUYZAws6Hm-114">
          <mxGeometry width="48" height="48" as="geometry">
            <mxRectangle width="48" height="48" as="alternateBounds" />
          </mxGeometry>
        </mxCell>
        <mxCell id="zDdMs9WuckhUYZAws6Hm-116" value="" style="shape=partialRectangle;html=1;whiteSpace=wrap;connectable=0;overflow=hidden;fillColor=none;top=0;left=0;bottom=0;right=0;pointerEvents=1;" vertex="1" parent="zDdMs9WuckhUYZAws6Hm-114">
          <mxGeometry x="48" width="48" height="48" as="geometry">
            <mxRectangle width="48" height="48" as="alternateBounds" />
          </mxGeometry>
        </mxCell>
        <mxCell id="zDdMs9WuckhUYZAws6Hm-117" value="" style="shape=partialRectangle;html=1;whiteSpace=wrap;connectable=0;overflow=hidden;fillColor=none;top=0;left=0;bottom=0;right=0;pointerEvents=1;" vertex="1" parent="zDdMs9WuckhUYZAws6Hm-114">
          <mxGeometry x="96" width="48" height="48" as="geometry">
            <mxRectangle width="48" height="48" as="alternateBounds" />
          </mxGeometry>
        </mxCell>
        <mxCell id="zDdMs9WuckhUYZAws6Hm-118" value="" style="shape=partialRectangle;html=1;whiteSpace=wrap;connectable=0;overflow=hidden;fillColor=none;top=0;left=0;bottom=0;right=0;pointerEvents=1;" vertex="1" parent="zDdMs9WuckhUYZAws6Hm-114">
          <mxGeometry x="144" width="48" height="48" as="geometry">
            <mxRectangle width="48" height="48" as="alternateBounds" />
          </mxGeometry>
        </mxCell>
        <mxCell id="zDdMs9WuckhUYZAws6Hm-119" value="" style="shape=partialRectangle;html=1;whiteSpace=wrap;connectable=0;overflow=hidden;fillColor=none;top=0;left=0;bottom=0;right=0;pointerEvents=1;" vertex="1" parent="zDdMs9WuckhUYZAws6Hm-114">
          <mxGeometry x="192" width="48" height="48" as="geometry">
            <mxRectangle width="48" height="48" as="alternateBounds" />
          </mxGeometry>
        </mxCell>
        <mxCell id="zDdMs9WuckhUYZAws6Hm-120" value="" style="shape=partialRectangle;collapsible=0;dropTarget=0;pointerEvents=0;fillColor=none;top=0;left=0;bottom=0;right=0;points=[[0,0.5],[1,0.5]];portConstraint=eastwest;" vertex="1" parent="zDdMs9WuckhUYZAws6Hm-107">
          <mxGeometry y="96" width="240" height="48" as="geometry" />
        </mxCell>
        <mxCell id="zDdMs9WuckhUYZAws6Hm-121" value="" style="shape=partialRectangle;html=1;whiteSpace=wrap;connectable=0;overflow=hidden;fillColor=none;top=0;left=0;bottom=0;right=0;pointerEvents=1;" vertex="1" parent="zDdMs9WuckhUYZAws6Hm-120">
          <mxGeometry width="48" height="48" as="geometry">
            <mxRectangle width="48" height="48" as="alternateBounds" />
          </mxGeometry>
        </mxCell>
        <mxCell id="zDdMs9WuckhUYZAws6Hm-122" value="" style="shape=partialRectangle;html=1;whiteSpace=wrap;connectable=0;overflow=hidden;fillColor=none;top=0;left=0;bottom=0;right=0;pointerEvents=1;" vertex="1" parent="zDdMs9WuckhUYZAws6Hm-120">
          <mxGeometry x="48" width="48" height="48" as="geometry">
            <mxRectangle width="48" height="48" as="alternateBounds" />
          </mxGeometry>
        </mxCell>
        <mxCell id="zDdMs9WuckhUYZAws6Hm-123" value="" style="shape=partialRectangle;html=1;whiteSpace=wrap;connectable=0;overflow=hidden;fillColor=none;top=0;left=0;bottom=0;right=0;pointerEvents=1;" vertex="1" parent="zDdMs9WuckhUYZAws6Hm-120">
          <mxGeometry x="96" width="48" height="48" as="geometry">
            <mxRectangle width="48" height="48" as="alternateBounds" />
          </mxGeometry>
        </mxCell>
        <mxCell id="zDdMs9WuckhUYZAws6Hm-124" value="" style="shape=partialRectangle;html=1;whiteSpace=wrap;connectable=0;overflow=hidden;fillColor=none;top=0;left=0;bottom=0;right=0;pointerEvents=1;" vertex="1" parent="zDdMs9WuckhUYZAws6Hm-120">
          <mxGeometry x="144" width="48" height="48" as="geometry">
            <mxRectangle width="48" height="48" as="alternateBounds" />
          </mxGeometry>
        </mxCell>
        <mxCell id="zDdMs9WuckhUYZAws6Hm-125" value="" style="shape=partialRectangle;html=1;whiteSpace=wrap;connectable=0;overflow=hidden;fillColor=none;top=0;left=0;bottom=0;right=0;pointerEvents=1;" vertex="1" parent="zDdMs9WuckhUYZAws6Hm-120">
          <mxGeometry x="192" width="48" height="48" as="geometry">
            <mxRectangle width="48" height="48" as="alternateBounds" />
          </mxGeometry>
        </mxCell>
        <mxCell id="zDdMs9WuckhUYZAws6Hm-126" value="" style="shape=partialRectangle;collapsible=0;dropTarget=0;pointerEvents=0;fillColor=none;top=0;left=0;bottom=0;right=0;points=[[0,0.5],[1,0.5]];portConstraint=eastwest;" vertex="1" parent="zDdMs9WuckhUYZAws6Hm-107">
          <mxGeometry y="144" width="240" height="48" as="geometry" />
        </mxCell>
        <mxCell id="zDdMs9WuckhUYZAws6Hm-127" value="" style="shape=partialRectangle;html=1;whiteSpace=wrap;connectable=0;overflow=hidden;fillColor=none;top=0;left=0;bottom=0;right=0;pointerEvents=1;" vertex="1" parent="zDdMs9WuckhUYZAws6Hm-126">
          <mxGeometry width="48" height="48" as="geometry">
            <mxRectangle width="48" height="48" as="alternateBounds" />
          </mxGeometry>
        </mxCell>
        <mxCell id="zDdMs9WuckhUYZAws6Hm-128" value="" style="shape=partialRectangle;html=1;whiteSpace=wrap;connectable=0;overflow=hidden;fillColor=none;top=0;left=0;bottom=0;right=0;pointerEvents=1;" vertex="1" parent="zDdMs9WuckhUYZAws6Hm-126">
          <mxGeometry x="48" width="48" height="48" as="geometry">
            <mxRectangle width="48" height="48" as="alternateBounds" />
          </mxGeometry>
        </mxCell>
        <mxCell id="zDdMs9WuckhUYZAws6Hm-129" value="" style="shape=partialRectangle;html=1;whiteSpace=wrap;connectable=0;overflow=hidden;fillColor=none;top=0;left=0;bottom=0;right=0;pointerEvents=1;" vertex="1" parent="zDdMs9WuckhUYZAws6Hm-126">
          <mxGeometry x="96" width="48" height="48" as="geometry">
            <mxRectangle width="48" height="48" as="alternateBounds" />
          </mxGeometry>
        </mxCell>
        <mxCell id="zDdMs9WuckhUYZAws6Hm-130" value="" style="shape=partialRectangle;html=1;whiteSpace=wrap;connectable=0;overflow=hidden;fillColor=none;top=0;left=0;bottom=0;right=0;pointerEvents=1;" vertex="1" parent="zDdMs9WuckhUYZAws6Hm-126">
          <mxGeometry x="144" width="48" height="48" as="geometry">
            <mxRectangle width="48" height="48" as="alternateBounds" />
          </mxGeometry>
        </mxCell>
        <mxCell id="zDdMs9WuckhUYZAws6Hm-131" value="" style="shape=partialRectangle;html=1;whiteSpace=wrap;connectable=0;overflow=hidden;fillColor=none;top=0;left=0;bottom=0;right=0;pointerEvents=1;" vertex="1" parent="zDdMs9WuckhUYZAws6Hm-126">
          <mxGeometry x="192" width="48" height="48" as="geometry">
            <mxRectangle width="48" height="48" as="alternateBounds" />
          </mxGeometry>
        </mxCell>
        <mxCell id="zDdMs9WuckhUYZAws6Hm-132" value="" style="shape=partialRectangle;collapsible=0;dropTarget=0;pointerEvents=0;fillColor=none;top=0;left=0;bottom=0;right=0;points=[[0,0.5],[1,0.5]];portConstraint=eastwest;" vertex="1" parent="zDdMs9WuckhUYZAws6Hm-107">
          <mxGeometry y="192" width="240" height="48" as="geometry" />
        </mxCell>
        <mxCell id="zDdMs9WuckhUYZAws6Hm-133" value="" style="shape=partialRectangle;html=1;whiteSpace=wrap;connectable=0;overflow=hidden;fillColor=none;top=0;left=0;bottom=0;right=0;pointerEvents=1;" vertex="1" parent="zDdMs9WuckhUYZAws6Hm-132">
          <mxGeometry width="48" height="48" as="geometry">
            <mxRectangle width="48" height="48" as="alternateBounds" />
          </mxGeometry>
        </mxCell>
        <mxCell id="zDdMs9WuckhUYZAws6Hm-134" value="" style="shape=partialRectangle;html=1;whiteSpace=wrap;connectable=0;overflow=hidden;fillColor=none;top=0;left=0;bottom=0;right=0;pointerEvents=1;" vertex="1" parent="zDdMs9WuckhUYZAws6Hm-132">
          <mxGeometry x="48" width="48" height="48" as="geometry">
            <mxRectangle width="48" height="48" as="alternateBounds" />
          </mxGeometry>
        </mxCell>
        <mxCell id="zDdMs9WuckhUYZAws6Hm-135" value="" style="shape=partialRectangle;html=1;whiteSpace=wrap;connectable=0;overflow=hidden;fillColor=none;top=0;left=0;bottom=0;right=0;pointerEvents=1;" vertex="1" parent="zDdMs9WuckhUYZAws6Hm-132">
          <mxGeometry x="96" width="48" height="48" as="geometry">
            <mxRectangle width="48" height="48" as="alternateBounds" />
          </mxGeometry>
        </mxCell>
        <mxCell id="zDdMs9WuckhUYZAws6Hm-136" value="" style="shape=partialRectangle;html=1;whiteSpace=wrap;connectable=0;overflow=hidden;fillColor=none;top=0;left=0;bottom=0;right=0;pointerEvents=1;" vertex="1" parent="zDdMs9WuckhUYZAws6Hm-132">
          <mxGeometry x="144" width="48" height="48" as="geometry">
            <mxRectangle width="48" height="48" as="alternateBounds" />
          </mxGeometry>
        </mxCell>
        <mxCell id="zDdMs9WuckhUYZAws6Hm-137" value="" style="shape=partialRectangle;html=1;whiteSpace=wrap;connectable=0;overflow=hidden;fillColor=none;top=0;left=0;bottom=0;right=0;pointerEvents=1;" vertex="1" parent="zDdMs9WuckhUYZAws6Hm-132">
          <mxGeometry x="192" width="48" height="48" as="geometry">
            <mxRectangle width="48" height="48" as="alternateBounds" />
          </mxGeometry>
        </mxCell>
        <mxCell id="zDdMs9WuckhUYZAws6Hm-141" value="" style="html=1;whiteSpace=wrap;shape=isoCube2;backgroundOutline=1;isoAngle=15;labelBackgroundColor=#97D077;fillColor=default;" vertex="1" parent="1">
          <mxGeometry x="90" y="580" width="90" height="100" as="geometry" />
        </mxCell>
        <mxCell id="zDdMs9WuckhUYZAws6Hm-142" value="" style="html=1;whiteSpace=wrap;shape=isoCube2;backgroundOutline=1;isoAngle=15;labelBackgroundColor=#97D077;fillColor=default;" vertex="1" parent="1">
          <mxGeometry x="90" y="530" width="90" height="100" as="geometry" />
        </mxCell>
        <mxCell id="zDdMs9WuckhUYZAws6Hm-143" value="" style="shape=table;startSize=0;container=1;collapsible=0;childLayout=tableLayout;" vertex="1" parent="1">
          <mxGeometry x="400" y="160" width="240" height="240" as="geometry" />
        </mxCell>
        <mxCell id="zDdMs9WuckhUYZAws6Hm-144" value="" style="shape=partialRectangle;collapsible=0;dropTarget=0;pointerEvents=0;fillColor=none;top=0;left=0;bottom=0;right=0;points=[[0,0.5],[1,0.5]];portConstraint=eastwest;" vertex="1" parent="zDdMs9WuckhUYZAws6Hm-143">
          <mxGeometry width="240" height="48" as="geometry" />
        </mxCell>
        <mxCell id="zDdMs9WuckhUYZAws6Hm-145" value="" style="shape=partialRectangle;html=1;whiteSpace=wrap;connectable=0;overflow=hidden;fillColor=none;top=0;left=0;bottom=0;right=0;pointerEvents=1;" vertex="1" parent="zDdMs9WuckhUYZAws6Hm-144">
          <mxGeometry width="48" height="48" as="geometry">
            <mxRectangle width="48" height="48" as="alternateBounds" />
          </mxGeometry>
        </mxCell>
        <mxCell id="zDdMs9WuckhUYZAws6Hm-146" value="" style="shape=partialRectangle;html=1;whiteSpace=wrap;connectable=0;overflow=hidden;fillColor=none;top=0;left=0;bottom=0;right=0;pointerEvents=1;" vertex="1" parent="zDdMs9WuckhUYZAws6Hm-144">
          <mxGeometry x="48" width="48" height="48" as="geometry">
            <mxRectangle width="48" height="48" as="alternateBounds" />
          </mxGeometry>
        </mxCell>
        <mxCell id="zDdMs9WuckhUYZAws6Hm-147" value="" style="shape=partialRectangle;html=1;whiteSpace=wrap;connectable=0;overflow=hidden;fillColor=none;top=0;left=0;bottom=0;right=0;pointerEvents=1;" vertex="1" parent="zDdMs9WuckhUYZAws6Hm-144">
          <mxGeometry x="96" width="48" height="48" as="geometry">
            <mxRectangle width="48" height="48" as="alternateBounds" />
          </mxGeometry>
        </mxCell>
        <mxCell id="zDdMs9WuckhUYZAws6Hm-148" value="" style="shape=partialRectangle;html=1;whiteSpace=wrap;connectable=0;overflow=hidden;fillColor=none;top=0;left=0;bottom=0;right=0;pointerEvents=1;" vertex="1" parent="zDdMs9WuckhUYZAws6Hm-144">
          <mxGeometry x="144" width="48" height="48" as="geometry">
            <mxRectangle width="48" height="48" as="alternateBounds" />
          </mxGeometry>
        </mxCell>
        <mxCell id="zDdMs9WuckhUYZAws6Hm-149" value="" style="shape=partialRectangle;html=1;whiteSpace=wrap;connectable=0;overflow=hidden;fillColor=none;top=0;left=0;bottom=0;right=0;pointerEvents=1;" vertex="1" parent="zDdMs9WuckhUYZAws6Hm-144">
          <mxGeometry x="192" width="48" height="48" as="geometry">
            <mxRectangle width="48" height="48" as="alternateBounds" />
          </mxGeometry>
        </mxCell>
        <mxCell id="zDdMs9WuckhUYZAws6Hm-150" value="" style="shape=partialRectangle;collapsible=0;dropTarget=0;pointerEvents=0;fillColor=none;top=0;left=0;bottom=0;right=0;points=[[0,0.5],[1,0.5]];portConstraint=eastwest;" vertex="1" parent="zDdMs9WuckhUYZAws6Hm-143">
          <mxGeometry y="48" width="240" height="48" as="geometry" />
        </mxCell>
        <mxCell id="zDdMs9WuckhUYZAws6Hm-151" value="" style="shape=partialRectangle;html=1;whiteSpace=wrap;connectable=0;overflow=hidden;fillColor=none;top=0;left=0;bottom=0;right=0;pointerEvents=1;" vertex="1" parent="zDdMs9WuckhUYZAws6Hm-150">
          <mxGeometry width="48" height="48" as="geometry">
            <mxRectangle width="48" height="48" as="alternateBounds" />
          </mxGeometry>
        </mxCell>
        <mxCell id="zDdMs9WuckhUYZAws6Hm-152" value="" style="shape=partialRectangle;html=1;whiteSpace=wrap;connectable=0;overflow=hidden;fillColor=none;top=0;left=0;bottom=0;right=0;pointerEvents=1;" vertex="1" parent="zDdMs9WuckhUYZAws6Hm-150">
          <mxGeometry x="48" width="48" height="48" as="geometry">
            <mxRectangle width="48" height="48" as="alternateBounds" />
          </mxGeometry>
        </mxCell>
        <mxCell id="zDdMs9WuckhUYZAws6Hm-153" value="" style="shape=partialRectangle;html=1;whiteSpace=wrap;connectable=0;overflow=hidden;fillColor=none;top=0;left=0;bottom=0;right=0;pointerEvents=1;" vertex="1" parent="zDdMs9WuckhUYZAws6Hm-150">
          <mxGeometry x="96" width="48" height="48" as="geometry">
            <mxRectangle width="48" height="48" as="alternateBounds" />
          </mxGeometry>
        </mxCell>
        <mxCell id="zDdMs9WuckhUYZAws6Hm-154" value="" style="shape=partialRectangle;html=1;whiteSpace=wrap;connectable=0;overflow=hidden;fillColor=none;top=0;left=0;bottom=0;right=0;pointerEvents=1;" vertex="1" parent="zDdMs9WuckhUYZAws6Hm-150">
          <mxGeometry x="144" width="48" height="48" as="geometry">
            <mxRectangle width="48" height="48" as="alternateBounds" />
          </mxGeometry>
        </mxCell>
        <mxCell id="zDdMs9WuckhUYZAws6Hm-155" value="" style="shape=partialRectangle;html=1;whiteSpace=wrap;connectable=0;overflow=hidden;fillColor=none;top=0;left=0;bottom=0;right=0;pointerEvents=1;" vertex="1" parent="zDdMs9WuckhUYZAws6Hm-150">
          <mxGeometry x="192" width="48" height="48" as="geometry">
            <mxRectangle width="48" height="48" as="alternateBounds" />
          </mxGeometry>
        </mxCell>
        <mxCell id="zDdMs9WuckhUYZAws6Hm-156" value="" style="shape=partialRectangle;collapsible=0;dropTarget=0;pointerEvents=0;fillColor=none;top=0;left=0;bottom=0;right=0;points=[[0,0.5],[1,0.5]];portConstraint=eastwest;" vertex="1" parent="zDdMs9WuckhUYZAws6Hm-143">
          <mxGeometry y="96" width="240" height="48" as="geometry" />
        </mxCell>
        <mxCell id="zDdMs9WuckhUYZAws6Hm-157" value="" style="shape=partialRectangle;html=1;whiteSpace=wrap;connectable=0;overflow=hidden;fillColor=none;top=0;left=0;bottom=0;right=0;pointerEvents=1;" vertex="1" parent="zDdMs9WuckhUYZAws6Hm-156">
          <mxGeometry width="48" height="48" as="geometry">
            <mxRectangle width="48" height="48" as="alternateBounds" />
          </mxGeometry>
        </mxCell>
        <mxCell id="zDdMs9WuckhUYZAws6Hm-158" value="" style="shape=partialRectangle;html=1;whiteSpace=wrap;connectable=0;overflow=hidden;fillColor=none;top=0;left=0;bottom=0;right=0;pointerEvents=1;" vertex="1" parent="zDdMs9WuckhUYZAws6Hm-156">
          <mxGeometry x="48" width="48" height="48" as="geometry">
            <mxRectangle width="48" height="48" as="alternateBounds" />
          </mxGeometry>
        </mxCell>
        <mxCell id="zDdMs9WuckhUYZAws6Hm-159" value="" style="shape=partialRectangle;html=1;whiteSpace=wrap;connectable=0;overflow=hidden;fillColor=none;top=0;left=0;bottom=0;right=0;pointerEvents=1;" vertex="1" parent="zDdMs9WuckhUYZAws6Hm-156">
          <mxGeometry x="96" width="48" height="48" as="geometry">
            <mxRectangle width="48" height="48" as="alternateBounds" />
          </mxGeometry>
        </mxCell>
        <mxCell id="zDdMs9WuckhUYZAws6Hm-160" value="" style="shape=partialRectangle;html=1;whiteSpace=wrap;connectable=0;overflow=hidden;fillColor=none;top=0;left=0;bottom=0;right=0;pointerEvents=1;" vertex="1" parent="zDdMs9WuckhUYZAws6Hm-156">
          <mxGeometry x="144" width="48" height="48" as="geometry">
            <mxRectangle width="48" height="48" as="alternateBounds" />
          </mxGeometry>
        </mxCell>
        <mxCell id="zDdMs9WuckhUYZAws6Hm-161" value="" style="shape=partialRectangle;html=1;whiteSpace=wrap;connectable=0;overflow=hidden;fillColor=none;top=0;left=0;bottom=0;right=0;pointerEvents=1;" vertex="1" parent="zDdMs9WuckhUYZAws6Hm-156">
          <mxGeometry x="192" width="48" height="48" as="geometry">
            <mxRectangle width="48" height="48" as="alternateBounds" />
          </mxGeometry>
        </mxCell>
        <mxCell id="zDdMs9WuckhUYZAws6Hm-162" value="" style="shape=partialRectangle;collapsible=0;dropTarget=0;pointerEvents=0;fillColor=none;top=0;left=0;bottom=0;right=0;points=[[0,0.5],[1,0.5]];portConstraint=eastwest;" vertex="1" parent="zDdMs9WuckhUYZAws6Hm-143">
          <mxGeometry y="144" width="240" height="48" as="geometry" />
        </mxCell>
        <mxCell id="zDdMs9WuckhUYZAws6Hm-163" value="" style="shape=partialRectangle;html=1;whiteSpace=wrap;connectable=0;overflow=hidden;fillColor=none;top=0;left=0;bottom=0;right=0;pointerEvents=1;" vertex="1" parent="zDdMs9WuckhUYZAws6Hm-162">
          <mxGeometry width="48" height="48" as="geometry">
            <mxRectangle width="48" height="48" as="alternateBounds" />
          </mxGeometry>
        </mxCell>
        <mxCell id="zDdMs9WuckhUYZAws6Hm-164" value="" style="shape=partialRectangle;html=1;whiteSpace=wrap;connectable=0;overflow=hidden;fillColor=none;top=0;left=0;bottom=0;right=0;pointerEvents=1;" vertex="1" parent="zDdMs9WuckhUYZAws6Hm-162">
          <mxGeometry x="48" width="48" height="48" as="geometry">
            <mxRectangle width="48" height="48" as="alternateBounds" />
          </mxGeometry>
        </mxCell>
        <mxCell id="zDdMs9WuckhUYZAws6Hm-165" value="" style="shape=partialRectangle;html=1;whiteSpace=wrap;connectable=0;overflow=hidden;fillColor=none;top=0;left=0;bottom=0;right=0;pointerEvents=1;" vertex="1" parent="zDdMs9WuckhUYZAws6Hm-162">
          <mxGeometry x="96" width="48" height="48" as="geometry">
            <mxRectangle width="48" height="48" as="alternateBounds" />
          </mxGeometry>
        </mxCell>
        <mxCell id="zDdMs9WuckhUYZAws6Hm-166" value="" style="shape=partialRectangle;html=1;whiteSpace=wrap;connectable=0;overflow=hidden;fillColor=none;top=0;left=0;bottom=0;right=0;pointerEvents=1;" vertex="1" parent="zDdMs9WuckhUYZAws6Hm-162">
          <mxGeometry x="144" width="48" height="48" as="geometry">
            <mxRectangle width="48" height="48" as="alternateBounds" />
          </mxGeometry>
        </mxCell>
        <mxCell id="zDdMs9WuckhUYZAws6Hm-167" value="" style="shape=partialRectangle;html=1;whiteSpace=wrap;connectable=0;overflow=hidden;fillColor=none;top=0;left=0;bottom=0;right=0;pointerEvents=1;" vertex="1" parent="zDdMs9WuckhUYZAws6Hm-162">
          <mxGeometry x="192" width="48" height="48" as="geometry">
            <mxRectangle width="48" height="48" as="alternateBounds" />
          </mxGeometry>
        </mxCell>
        <mxCell id="zDdMs9WuckhUYZAws6Hm-168" value="" style="shape=partialRectangle;collapsible=0;dropTarget=0;pointerEvents=0;fillColor=none;top=0;left=0;bottom=0;right=0;points=[[0,0.5],[1,0.5]];portConstraint=eastwest;" vertex="1" parent="zDdMs9WuckhUYZAws6Hm-143">
          <mxGeometry y="192" width="240" height="48" as="geometry" />
        </mxCell>
        <mxCell id="zDdMs9WuckhUYZAws6Hm-169" value="" style="shape=partialRectangle;html=1;whiteSpace=wrap;connectable=0;overflow=hidden;fillColor=none;top=0;left=0;bottom=0;right=0;pointerEvents=1;" vertex="1" parent="zDdMs9WuckhUYZAws6Hm-168">
          <mxGeometry width="48" height="48" as="geometry">
            <mxRectangle width="48" height="48" as="alternateBounds" />
          </mxGeometry>
        </mxCell>
        <mxCell id="zDdMs9WuckhUYZAws6Hm-170" value="" style="shape=partialRectangle;html=1;whiteSpace=wrap;connectable=0;overflow=hidden;fillColor=none;top=0;left=0;bottom=0;right=0;pointerEvents=1;" vertex="1" parent="zDdMs9WuckhUYZAws6Hm-168">
          <mxGeometry x="48" width="48" height="48" as="geometry">
            <mxRectangle width="48" height="48" as="alternateBounds" />
          </mxGeometry>
        </mxCell>
        <mxCell id="zDdMs9WuckhUYZAws6Hm-171" value="" style="shape=partialRectangle;html=1;whiteSpace=wrap;connectable=0;overflow=hidden;fillColor=none;top=0;left=0;bottom=0;right=0;pointerEvents=1;" vertex="1" parent="zDdMs9WuckhUYZAws6Hm-168">
          <mxGeometry x="96" width="48" height="48" as="geometry">
            <mxRectangle width="48" height="48" as="alternateBounds" />
          </mxGeometry>
        </mxCell>
        <mxCell id="zDdMs9WuckhUYZAws6Hm-172" value="" style="shape=partialRectangle;html=1;whiteSpace=wrap;connectable=0;overflow=hidden;fillColor=none;top=0;left=0;bottom=0;right=0;pointerEvents=1;" vertex="1" parent="zDdMs9WuckhUYZAws6Hm-168">
          <mxGeometry x="144" width="48" height="48" as="geometry">
            <mxRectangle width="48" height="48" as="alternateBounds" />
          </mxGeometry>
        </mxCell>
        <mxCell id="zDdMs9WuckhUYZAws6Hm-173" value="" style="shape=partialRectangle;html=1;whiteSpace=wrap;connectable=0;overflow=hidden;fillColor=none;top=0;left=0;bottom=0;right=0;pointerEvents=1;" vertex="1" parent="zDdMs9WuckhUYZAws6Hm-168">
          <mxGeometry x="192" width="48" height="48" as="geometry">
            <mxRectangle width="48" height="48" as="alternateBounds" />
          </mxGeometry>
        </mxCell>
        <mxCell id="zDdMs9WuckhUYZAws6Hm-174" value="" style="shape=table;startSize=0;container=1;collapsible=0;childLayout=tableLayout;" vertex="1" parent="1">
          <mxGeometry x="720" y="160" width="240" height="240" as="geometry" />
        </mxCell>
        <mxCell id="zDdMs9WuckhUYZAws6Hm-175" value="" style="shape=partialRectangle;collapsible=0;dropTarget=0;pointerEvents=0;fillColor=none;top=0;left=0;bottom=0;right=0;points=[[0,0.5],[1,0.5]];portConstraint=eastwest;" vertex="1" parent="zDdMs9WuckhUYZAws6Hm-174">
          <mxGeometry width="240" height="48" as="geometry" />
        </mxCell>
        <mxCell id="zDdMs9WuckhUYZAws6Hm-176" value="" style="shape=partialRectangle;html=1;whiteSpace=wrap;connectable=0;overflow=hidden;fillColor=none;top=0;left=0;bottom=0;right=0;pointerEvents=1;" vertex="1" parent="zDdMs9WuckhUYZAws6Hm-175">
          <mxGeometry width="48" height="48" as="geometry">
            <mxRectangle width="48" height="48" as="alternateBounds" />
          </mxGeometry>
        </mxCell>
        <mxCell id="zDdMs9WuckhUYZAws6Hm-177" value="" style="shape=partialRectangle;html=1;whiteSpace=wrap;connectable=0;overflow=hidden;fillColor=none;top=0;left=0;bottom=0;right=0;pointerEvents=1;" vertex="1" parent="zDdMs9WuckhUYZAws6Hm-175">
          <mxGeometry x="48" width="48" height="48" as="geometry">
            <mxRectangle width="48" height="48" as="alternateBounds" />
          </mxGeometry>
        </mxCell>
        <mxCell id="zDdMs9WuckhUYZAws6Hm-178" value="" style="shape=partialRectangle;html=1;whiteSpace=wrap;connectable=0;overflow=hidden;fillColor=none;top=0;left=0;bottom=0;right=0;pointerEvents=1;" vertex="1" parent="zDdMs9WuckhUYZAws6Hm-175">
          <mxGeometry x="96" width="48" height="48" as="geometry">
            <mxRectangle width="48" height="48" as="alternateBounds" />
          </mxGeometry>
        </mxCell>
        <mxCell id="zDdMs9WuckhUYZAws6Hm-179" value="" style="shape=partialRectangle;html=1;whiteSpace=wrap;connectable=0;overflow=hidden;fillColor=none;top=0;left=0;bottom=0;right=0;pointerEvents=1;" vertex="1" parent="zDdMs9WuckhUYZAws6Hm-175">
          <mxGeometry x="144" width="48" height="48" as="geometry">
            <mxRectangle width="48" height="48" as="alternateBounds" />
          </mxGeometry>
        </mxCell>
        <mxCell id="zDdMs9WuckhUYZAws6Hm-180" value="" style="shape=partialRectangle;html=1;whiteSpace=wrap;connectable=0;overflow=hidden;fillColor=none;top=0;left=0;bottom=0;right=0;pointerEvents=1;" vertex="1" parent="zDdMs9WuckhUYZAws6Hm-175">
          <mxGeometry x="192" width="48" height="48" as="geometry">
            <mxRectangle width="48" height="48" as="alternateBounds" />
          </mxGeometry>
        </mxCell>
        <mxCell id="zDdMs9WuckhUYZAws6Hm-181" value="" style="shape=partialRectangle;collapsible=0;dropTarget=0;pointerEvents=0;fillColor=none;top=0;left=0;bottom=0;right=0;points=[[0,0.5],[1,0.5]];portConstraint=eastwest;" vertex="1" parent="zDdMs9WuckhUYZAws6Hm-174">
          <mxGeometry y="48" width="240" height="48" as="geometry" />
        </mxCell>
        <mxCell id="zDdMs9WuckhUYZAws6Hm-182" value="" style="shape=partialRectangle;html=1;whiteSpace=wrap;connectable=0;overflow=hidden;fillColor=none;top=0;left=0;bottom=0;right=0;pointerEvents=1;" vertex="1" parent="zDdMs9WuckhUYZAws6Hm-181">
          <mxGeometry width="48" height="48" as="geometry">
            <mxRectangle width="48" height="48" as="alternateBounds" />
          </mxGeometry>
        </mxCell>
        <mxCell id="zDdMs9WuckhUYZAws6Hm-183" value="" style="shape=partialRectangle;html=1;whiteSpace=wrap;connectable=0;overflow=hidden;fillColor=none;top=0;left=0;bottom=0;right=0;pointerEvents=1;" vertex="1" parent="zDdMs9WuckhUYZAws6Hm-181">
          <mxGeometry x="48" width="48" height="48" as="geometry">
            <mxRectangle width="48" height="48" as="alternateBounds" />
          </mxGeometry>
        </mxCell>
        <mxCell id="zDdMs9WuckhUYZAws6Hm-184" value="" style="shape=partialRectangle;html=1;whiteSpace=wrap;connectable=0;overflow=hidden;fillColor=none;top=0;left=0;bottom=0;right=0;pointerEvents=1;" vertex="1" parent="zDdMs9WuckhUYZAws6Hm-181">
          <mxGeometry x="96" width="48" height="48" as="geometry">
            <mxRectangle width="48" height="48" as="alternateBounds" />
          </mxGeometry>
        </mxCell>
        <mxCell id="zDdMs9WuckhUYZAws6Hm-185" value="" style="shape=partialRectangle;html=1;whiteSpace=wrap;connectable=0;overflow=hidden;fillColor=none;top=0;left=0;bottom=0;right=0;pointerEvents=1;" vertex="1" parent="zDdMs9WuckhUYZAws6Hm-181">
          <mxGeometry x="144" width="48" height="48" as="geometry">
            <mxRectangle width="48" height="48" as="alternateBounds" />
          </mxGeometry>
        </mxCell>
        <mxCell id="zDdMs9WuckhUYZAws6Hm-186" value="" style="shape=partialRectangle;html=1;whiteSpace=wrap;connectable=0;overflow=hidden;fillColor=none;top=0;left=0;bottom=0;right=0;pointerEvents=1;" vertex="1" parent="zDdMs9WuckhUYZAws6Hm-181">
          <mxGeometry x="192" width="48" height="48" as="geometry">
            <mxRectangle width="48" height="48" as="alternateBounds" />
          </mxGeometry>
        </mxCell>
        <mxCell id="zDdMs9WuckhUYZAws6Hm-187" value="" style="shape=partialRectangle;collapsible=0;dropTarget=0;pointerEvents=0;fillColor=none;top=0;left=0;bottom=0;right=0;points=[[0,0.5],[1,0.5]];portConstraint=eastwest;" vertex="1" parent="zDdMs9WuckhUYZAws6Hm-174">
          <mxGeometry y="96" width="240" height="48" as="geometry" />
        </mxCell>
        <mxCell id="zDdMs9WuckhUYZAws6Hm-188" value="" style="shape=partialRectangle;html=1;whiteSpace=wrap;connectable=0;overflow=hidden;fillColor=none;top=0;left=0;bottom=0;right=0;pointerEvents=1;" vertex="1" parent="zDdMs9WuckhUYZAws6Hm-187">
          <mxGeometry width="48" height="48" as="geometry">
            <mxRectangle width="48" height="48" as="alternateBounds" />
          </mxGeometry>
        </mxCell>
        <mxCell id="zDdMs9WuckhUYZAws6Hm-189" value="" style="shape=partialRectangle;html=1;whiteSpace=wrap;connectable=0;overflow=hidden;fillColor=none;top=0;left=0;bottom=0;right=0;pointerEvents=1;" vertex="1" parent="zDdMs9WuckhUYZAws6Hm-187">
          <mxGeometry x="48" width="48" height="48" as="geometry">
            <mxRectangle width="48" height="48" as="alternateBounds" />
          </mxGeometry>
        </mxCell>
        <mxCell id="zDdMs9WuckhUYZAws6Hm-190" value="" style="shape=partialRectangle;html=1;whiteSpace=wrap;connectable=0;overflow=hidden;fillColor=none;top=0;left=0;bottom=0;right=0;pointerEvents=1;" vertex="1" parent="zDdMs9WuckhUYZAws6Hm-187">
          <mxGeometry x="96" width="48" height="48" as="geometry">
            <mxRectangle width="48" height="48" as="alternateBounds" />
          </mxGeometry>
        </mxCell>
        <mxCell id="zDdMs9WuckhUYZAws6Hm-191" value="" style="shape=partialRectangle;html=1;whiteSpace=wrap;connectable=0;overflow=hidden;fillColor=none;top=0;left=0;bottom=0;right=0;pointerEvents=1;" vertex="1" parent="zDdMs9WuckhUYZAws6Hm-187">
          <mxGeometry x="144" width="48" height="48" as="geometry">
            <mxRectangle width="48" height="48" as="alternateBounds" />
          </mxGeometry>
        </mxCell>
        <mxCell id="zDdMs9WuckhUYZAws6Hm-192" value="" style="shape=partialRectangle;html=1;whiteSpace=wrap;connectable=0;overflow=hidden;fillColor=none;top=0;left=0;bottom=0;right=0;pointerEvents=1;" vertex="1" parent="zDdMs9WuckhUYZAws6Hm-187">
          <mxGeometry x="192" width="48" height="48" as="geometry">
            <mxRectangle width="48" height="48" as="alternateBounds" />
          </mxGeometry>
        </mxCell>
        <mxCell id="zDdMs9WuckhUYZAws6Hm-193" value="" style="shape=partialRectangle;collapsible=0;dropTarget=0;pointerEvents=0;fillColor=none;top=0;left=0;bottom=0;right=0;points=[[0,0.5],[1,0.5]];portConstraint=eastwest;" vertex="1" parent="zDdMs9WuckhUYZAws6Hm-174">
          <mxGeometry y="144" width="240" height="48" as="geometry" />
        </mxCell>
        <mxCell id="zDdMs9WuckhUYZAws6Hm-194" value="" style="shape=partialRectangle;html=1;whiteSpace=wrap;connectable=0;overflow=hidden;fillColor=none;top=0;left=0;bottom=0;right=0;pointerEvents=1;" vertex="1" parent="zDdMs9WuckhUYZAws6Hm-193">
          <mxGeometry width="48" height="48" as="geometry">
            <mxRectangle width="48" height="48" as="alternateBounds" />
          </mxGeometry>
        </mxCell>
        <mxCell id="zDdMs9WuckhUYZAws6Hm-195" value="" style="shape=partialRectangle;html=1;whiteSpace=wrap;connectable=0;overflow=hidden;fillColor=none;top=0;left=0;bottom=0;right=0;pointerEvents=1;" vertex="1" parent="zDdMs9WuckhUYZAws6Hm-193">
          <mxGeometry x="48" width="48" height="48" as="geometry">
            <mxRectangle width="48" height="48" as="alternateBounds" />
          </mxGeometry>
        </mxCell>
        <mxCell id="zDdMs9WuckhUYZAws6Hm-196" value="" style="shape=partialRectangle;html=1;whiteSpace=wrap;connectable=0;overflow=hidden;fillColor=none;top=0;left=0;bottom=0;right=0;pointerEvents=1;" vertex="1" parent="zDdMs9WuckhUYZAws6Hm-193">
          <mxGeometry x="96" width="48" height="48" as="geometry">
            <mxRectangle width="48" height="48" as="alternateBounds" />
          </mxGeometry>
        </mxCell>
        <mxCell id="zDdMs9WuckhUYZAws6Hm-197" value="" style="shape=partialRectangle;html=1;whiteSpace=wrap;connectable=0;overflow=hidden;fillColor=none;top=0;left=0;bottom=0;right=0;pointerEvents=1;" vertex="1" parent="zDdMs9WuckhUYZAws6Hm-193">
          <mxGeometry x="144" width="48" height="48" as="geometry">
            <mxRectangle width="48" height="48" as="alternateBounds" />
          </mxGeometry>
        </mxCell>
        <mxCell id="zDdMs9WuckhUYZAws6Hm-198" value="" style="shape=partialRectangle;html=1;whiteSpace=wrap;connectable=0;overflow=hidden;fillColor=none;top=0;left=0;bottom=0;right=0;pointerEvents=1;" vertex="1" parent="zDdMs9WuckhUYZAws6Hm-193">
          <mxGeometry x="192" width="48" height="48" as="geometry">
            <mxRectangle width="48" height="48" as="alternateBounds" />
          </mxGeometry>
        </mxCell>
        <mxCell id="zDdMs9WuckhUYZAws6Hm-199" value="" style="shape=partialRectangle;collapsible=0;dropTarget=0;pointerEvents=0;fillColor=none;top=0;left=0;bottom=0;right=0;points=[[0,0.5],[1,0.5]];portConstraint=eastwest;" vertex="1" parent="zDdMs9WuckhUYZAws6Hm-174">
          <mxGeometry y="192" width="240" height="48" as="geometry" />
        </mxCell>
        <mxCell id="zDdMs9WuckhUYZAws6Hm-200" value="" style="shape=partialRectangle;html=1;whiteSpace=wrap;connectable=0;overflow=hidden;fillColor=none;top=0;left=0;bottom=0;right=0;pointerEvents=1;" vertex="1" parent="zDdMs9WuckhUYZAws6Hm-199">
          <mxGeometry width="48" height="48" as="geometry">
            <mxRectangle width="48" height="48" as="alternateBounds" />
          </mxGeometry>
        </mxCell>
        <mxCell id="zDdMs9WuckhUYZAws6Hm-201" value="" style="shape=partialRectangle;html=1;whiteSpace=wrap;connectable=0;overflow=hidden;fillColor=none;top=0;left=0;bottom=0;right=0;pointerEvents=1;" vertex="1" parent="zDdMs9WuckhUYZAws6Hm-199">
          <mxGeometry x="48" width="48" height="48" as="geometry">
            <mxRectangle width="48" height="48" as="alternateBounds" />
          </mxGeometry>
        </mxCell>
        <mxCell id="zDdMs9WuckhUYZAws6Hm-202" value="" style="shape=partialRectangle;html=1;whiteSpace=wrap;connectable=0;overflow=hidden;fillColor=none;top=0;left=0;bottom=0;right=0;pointerEvents=1;" vertex="1" parent="zDdMs9WuckhUYZAws6Hm-199">
          <mxGeometry x="96" width="48" height="48" as="geometry">
            <mxRectangle width="48" height="48" as="alternateBounds" />
          </mxGeometry>
        </mxCell>
        <mxCell id="zDdMs9WuckhUYZAws6Hm-203" value="" style="shape=partialRectangle;html=1;whiteSpace=wrap;connectable=0;overflow=hidden;fillColor=none;top=0;left=0;bottom=0;right=0;pointerEvents=1;" vertex="1" parent="zDdMs9WuckhUYZAws6Hm-199">
          <mxGeometry x="144" width="48" height="48" as="geometry">
            <mxRectangle width="48" height="48" as="alternateBounds" />
          </mxGeometry>
        </mxCell>
        <mxCell id="zDdMs9WuckhUYZAws6Hm-204" value="" style="shape=partialRectangle;html=1;whiteSpace=wrap;connectable=0;overflow=hidden;fillColor=none;top=0;left=0;bottom=0;right=0;pointerEvents=1;" vertex="1" parent="zDdMs9WuckhUYZAws6Hm-199">
          <mxGeometry x="192" width="48" height="48" as="geometry">
            <mxRectangle width="48" height="48" as="alternateBounds" />
          </mxGeometry>
        </mxCell>
      </root>
    </mxGraphModel>
  </diagram>
</mxfile>
